<?xml version="1.0" encoding="UTF-8"?>
<svg version="1.1" xmlns="http://www.w3.org/2000/svg" width="1024" height="1024">
<path d="M0 0 C337.92 0 675.84 0 1024 0 C1024 337.92 1024 675.84 1024 1024 C686.08 1024 348.16 1024 0 1024 C0 686.08 0 348.16 0 0 Z " fill="#FEFEFE" transform="translate(0,0)"/>
<path d="M0 0 C3.64636027 2.40504613 6.81792194 5.06663936 8.9375 8.9375 C9.29153442 13.41998864 8.69439454 16.10233232 6.48828125 19.9921875 C5.97168945 20.92893311 5.45509766 21.86567871 4.92285156 22.83081055 C4.37081055 23.81476807 3.81876953 24.79872559 3.25 25.8125 C-6.33199072 43.57058081 -9.45211381 57.53078937 -6.75 77.6875 C-6.61319824 78.73462158 -6.47639648 79.78174316 -6.33544922 80.8605957 C-5.20677474 89.28548335 -3.86966271 97.62841712 -2.0625 105.9375 C-1.88992676 106.73720215 -1.71735352 107.5369043 -1.53955078 108.36083984 C5.92854202 142.45934107 19.77313098 174.05090868 40.9375 201.9375 C41.57075195 202.78489746 41.57075195 202.78489746 42.21679688 203.64941406 C49.48984842 213.35593023 57.49998778 222.23402995 65.9375 230.9375 C66.88278564 231.91565674 66.88278564 231.91565674 67.84716797 232.91357422 C75.50105221 240.79980506 83.28523025 248.14258415 91.9375 254.9375 C93.18734757 255.96185961 94.43456118 256.98943806 95.6796875 258.01953125 C96.35201416 258.57366699 97.02434082 259.12780273 97.71704102 259.69873047 C99.006092 260.76161314 100.29327252 261.8267717 101.57788086 262.89501953 C102.84784688 263.93481762 104.1330737 264.95620948 105.43163681 265.96006584 C107.25700089 267.40050253 109.03804231 268.89763881 110.79021072 270.42627144 C120.38936015 278.42717923 128.14641553 279.34866097 140.35058594 279.10107422 C142.1590691 279.1015687 143.96755565 279.106535 145.77601624 279.11558533 C149.64251673 279.12544964 153.5070833 279.1041662 157.3733139 279.05773544 C163.49354544 278.98437798 169.61262138 278.98175627 175.73321533 278.98782349 C185.41456812 278.98910437 195.09502326 278.94311329 204.77612805 278.87690556 C222.11552905 278.75941417 239.45513205 278.71347931 256.79490304 278.69881642 C262.87226165 278.69168152 268.94890061 278.66086751 275.02604723 278.61019588 C278.81010947 278.58199367 282.59411063 278.56994274 286.37826347 278.56160164 C288.1253572 278.55418448 289.87243818 278.53985116 291.61940956 278.51788521 C304.03689853 278.36600972 313.86242691 279.26797524 323.25 288.14453125 C330.401867 295.74338994 331.29963926 303.19470321 331.3125 313.1875 C331.33699219 314.17363281 331.36148438 315.15976562 331.38671875 316.17578125 C331.42740437 326.46924202 328.4324053 334.52617186 321.23828125 341.95703125 C314.32068522 347.91156637 307.41422609 349.22293888 298.5546875 349.5625 C297.72380615 349.60117187 296.8929248 349.63984375 296.03686523 349.6796875 C294.00407856 349.77321615 291.97082096 349.85641256 289.9375 349.9375 C288.18623985 358.54141045 286.43648091 367.14562597 284.6875 375.75 C284.54874325 376.43261524 284.4099865 377.11523048 284.26702499 377.81853104 C280.15571726 398.0456303 276.05837376 418.27552857 271.97265625 438.5078125 C271.75812428 439.57011015 271.5435923 440.6324078 271.32255936 441.72689629 C269.38084081 451.34200162 267.43940772 460.9571645 265.49963379 470.57266235 C265.29625837 471.5807429 265.09288296 472.58882345 264.88334465 473.6274519 C264.47493837 475.65192123 264.06658897 477.67640205 263.65829659 479.70089436 C262.6490094 484.70385736 261.6377516 489.70640793 260.62240601 494.70814514 C260.21776351 496.70238835 259.81319217 498.696646 259.40869141 500.69091797 C259.20804518 501.68013339 259.00739895 502.66934881 258.80067253 503.68854046 C257.49612375 510.13536296 256.21499382 516.58649037 254.94680882 523.04056072 C254.06434755 527.52315883 253.17216338 532.00379404 252.27869225 536.48420906 C251.85678203 538.61254293 251.43926037 540.74175235 251.02652931 542.8718853 C248.92435824 553.71317155 246.92841063 563.99789973 241.9375 573.9375 C241.37546875 575.07445312 240.8134375 576.21140625 240.234375 577.3828125 C231.39711048 592.69181114 218.66060226 604.67632236 201.9375 610.9375 C201.04382721 611.27311699 200.15015442 611.60873398 199.22940063 611.95452118 C186.70793714 615.93979113 174.09655111 615.51094625 161.06802034 615.46039867 C157.57509108 615.45125674 154.08223841 615.46536265 150.58932495 615.47631836 C143.76630278 615.49401177 136.94345762 615.49030488 130.1204288 615.4786678 C124.57027162 615.46959733 119.0201637 615.46842501 113.47000122 615.47276306 C112.67706038 615.47337599 111.88411953 615.47398893 111.06715018 615.47462043 C109.45580314 615.47589946 107.84445612 615.47719632 106.23310912 615.4785108 C91.15891637 615.4898897 76.08482128 615.47684527 61.01064456 615.45530933 C48.10437825 615.43744079 35.1982559 615.44054566 22.29199219 615.45898438 C7.26805856 615.48043879 -7.75578971 615.48879132 -22.77973652 615.47653532 C-24.38482474 615.47526126 -25.98991297 615.47400377 -27.59500122 615.47276306 C-28.38452948 615.47214596 -29.17405774 615.47152886 -29.9875111 615.47089306 C-35.52456252 615.46745384 -41.06155934 615.47323752 -46.59860229 615.48268127 C-53.35566279 615.49395363 -60.11253767 615.4907521 -66.86957717 615.4695583 C-70.31054622 615.45911767 -73.75120693 615.45480478 -77.192173 615.46815491 C-102.1225175 615.54152435 -123.00428075 612.35095669 -141.61669922 594.41113281 C-158.00009641 577.71235108 -162.29901898 556.6166267 -166.6086731 534.58383179 C-167.21308782 531.49420086 -167.82350692 528.40580448 -168.43530273 525.31762695 C-169.14191851 521.75046308 -169.84810901 518.18321909 -170.55265808 514.61564636 C-172.81783372 503.14640012 -175.10818573 491.68223016 -177.40234375 480.21875 C-177.59464066 479.25784769 -177.78693756 478.29694538 -177.98506165 477.30692482 C-178.97202058 472.37544884 -179.95919785 467.44401661 -180.94647217 462.51260376 C-182.46212786 454.94149476 -183.97629278 447.37008778 -185.49035645 439.79866028 C-186.22639285 436.11794393 -186.96264896 432.43727164 -187.69909668 428.75663757 C-189.4349942 420.08027623 -191.16952367 411.40364748 -192.8996172 402.72612667 C-193.7142737 398.64052236 -194.52965573 394.55506299 -195.34509087 390.46961403 C-195.73094547 388.53537878 -196.11645203 386.60107407 -196.50157356 384.66669273 C-197.03847403 381.97007779 -197.57641864 379.27367423 -198.11499023 376.57739258 C-198.28238111 375.73813201 -198.44977198 374.89887144 -198.6222353 374.03417873 C-199.85362264 367.89347898 -201.17085345 361.77612443 -202.55140686 355.66703796 C-203.0625 352.9375 -203.0625 352.9375 -203.0625 348.9375 C-204.23425781 348.98390625 -205.40601563 349.0303125 -206.61328125 349.078125 C-217.97494439 349.39769447 -227.7151296 349.3460268 -236.5 341.1875 C-246.02094413 330.74957969 -245.80557269 319.13466335 -245.28466797 305.68408203 C-244.62634709 297.54549973 -241.04502446 290.78239089 -234.9609375 285.3359375 C-228.00305673 280.210585 -221.71511417 278.78396176 -213.17852783 278.81724548 C-211.97896222 278.81596385 -211.97896222 278.81596385 -210.75516295 278.81465632 C-208.07275519 278.81300787 -205.39040982 278.81851253 -202.70800781 278.82397461 C-200.78625998 278.82425664 -198.86451205 278.82409843 -196.94276428 278.8235321 C-191.72208386 278.82324477 -186.50142633 278.8291313 -181.28075123 278.83610606 C-175.82614571 278.84235011 -170.37153969 278.84294423 -164.91693115 278.84413147 C-154.58622163 278.84724167 -144.25552267 278.8554509 -133.9248178 278.86548096 C-122.16436981 278.87665172 -110.40392131 278.88215498 -98.64346933 278.88717639 C-74.44980703 278.89763375 -50.25615411 278.91522721 -26.0625 278.9375 C-26.43667053 278.44935822 -26.81084106 277.96121643 -27.1963501 277.45828247 C-28.9075147 275.22523087 -30.61782636 272.9915274 -32.328125 270.7578125 C-33.21105225 269.60599487 -33.21105225 269.60599487 -34.11181641 268.4309082 C-45.53401115 253.50836345 -55.03624387 237.91527941 -63.0625 220.9375 C-63.59746094 219.82117188 -64.13242187 218.70484375 -64.68359375 217.5546875 C-75.09439341 194.67796929 -79.28959101 169.6055731 -79.3125 144.625 C-79.31350708 143.86561127 -79.31451416 143.10622253 -79.31555176 142.32382202 C-79.30504573 130.6122278 -78.71326437 119.38605993 -76.0625 107.9375 C-75.7840625 106.6484375 -75.505625 105.359375 -75.21875 104.03125 C-70.35512157 83.73817966 -60.39706289 62.83878519 -43.375 50.0625 C-36.55392589 44.3997215 -32.95400034 34.76727096 -29.09765625 26.96875 C-28.57582764 25.91413574 -28.05399902 24.85952148 -27.51635742 23.77294922 C-26.48468755 21.67515135 -25.46229091 19.57276062 -24.45043945 17.46533203 C-13.62290326 -4.72631338 -13.62290326 -4.72631338 0 0 Z " fill="#F07920" transform="translate(469.0625,198.0625)"/>
<path d="M0 0 C3.72034518 2.12675783 6.66853448 3.84419128 8.5625 7.8125 C8.13840833 14.862155 6.50411573 21.38427959 4.6875 28.1875 C1.99103804 38.67597948 -0.21011008 49.05092049 -1.4375 59.8125 C-1.53417969 60.52325684 -1.63085938 61.23401367 -1.73046875 61.96630859 C-2.29813626 66.40583871 -2.56619781 70.41943109 -1.4375 74.8125 C1.00285653 77.31612503 3.35485829 78.64591325 6.47265625 80.21484375 C14.4428845 84.33598579 20.69258183 91.38239628 25.5625 98.8125 C26.07554687 99.58335937 26.58859375 100.35421875 27.1171875 101.1484375 C36.2149816 115.49669984 39.10008627 131.51206108 38.875 148.3125 C38.87822266 149.51519531 38.88144531 150.71789062 38.88476562 151.95703125 C38.80934156 164.72426808 36.92618838 176.75357173 33.375 189 C33.06457764 190.08023438 32.75415527 191.16046875 32.43432617 192.2734375 C25.51282597 215.93429279 15.9543971 239.97538649 2.01542664 260.45376587 C0.44216426 262.8840827 0.44216426 262.8840827 -0.83078003 266.00921631 C-3.25402946 270.71292075 -5.4373194 274.83678555 -10.7087574 276.55115509 C-17.8005395 277.73242463 -24.99346115 277.37736725 -32.15234375 277.1875 C-34.49203897 277.17084416 -36.8317778 277.15953593 -39.17152405 277.15332031 C-44.06745749 277.12740921 -48.96028734 277.05976586 -53.85522461 276.95800781 C-60.11054308 276.82806361 -66.36393878 276.76679035 -72.6204443 276.73245239 C-78.61050353 276.69760154 -84.60010877 276.63274085 -90.58984375 276.5625 C-91.72328657 276.55079773 -92.85672939 276.53909546 -94.02451897 276.52703857 C-97.2550651 276.48730284 -100.48452662 276.42683116 -103.71459961 276.359375 C-104.65568573 276.34973724 -105.59677185 276.34009949 -106.56637573 276.33016968 C-118.09182248 276.03435033 -126.64064135 272.7703825 -134.6875 264.5 C-142.30064733 252.80838089 -142.80966192 239.93444069 -142.75 226.3125 C-142.74726578 225.31171417 -142.74726578 225.31171417 -142.74447632 224.29071045 C-142.61472843 195.72504418 -138.53448463 166.94637384 -129.4375 139.8125 C-129.22544922 139.16587402 -129.01339844 138.51924805 -128.79492188 137.85302734 C-123.15735752 120.91088433 -114.94421458 105.4754984 -103.4375 91.8125 C-102.56544922 90.69681641 -102.56544922 90.69681641 -101.67578125 89.55859375 C-90.84415893 76.15675596 -74.18539275 67.92589032 -57.4375 64.8125 C-52.43249402 64.41971993 -47.4486192 64.55983853 -42.4375 64.8125 C-42.25864258 64.20519043 -42.07978516 63.59788086 -41.89550781 62.97216797 C-40.60650893 58.63075972 -39.28781688 54.30554397 -37.859375 50.0078125 C-33.94072176 38.15841245 -30.67667404 26.26990274 -27.92285156 14.09228516 C-27.65569336 12.95710449 -27.38853516 11.82192383 -27.11328125 10.65234375 C-26.88552002 9.64550537 -26.65775879 8.63866699 -26.4230957 7.60131836 C-24.96373662 3.47195032 -22.90353596 0.58919216 -19.01171875 -1.47265625 C-12.37701127 -3.31507123 -6.23648698 -2.93373204 0 0 Z " fill="#875220" transform="translate(725.4375,191.1875)"/>
<path d="M0 0 C3.64636027 2.40504613 6.81792194 5.06663936 8.9375 8.9375 C9.29153442 13.41998864 8.69439454 16.10233232 6.48828125 19.9921875 C5.97168945 20.92893311 5.45509766 21.86567871 4.92285156 22.83081055 C4.37081055 23.81476807 3.81876953 24.79872559 3.25 25.8125 C-6.33199072 43.57058081 -9.45211381 57.53078937 -6.75 77.6875 C-6.61319824 78.73462158 -6.47639648 79.78174316 -6.33544922 80.8605957 C-5.20677474 89.28548335 -3.86966271 97.62841712 -2.0625 105.9375 C-1.88992676 106.73720215 -1.71735352 107.5369043 -1.53955078 108.36083984 C5.92854202 142.45934107 19.77313098 174.05090868 40.9375 201.9375 C41.35966797 202.50243164 41.78183594 203.06736328 42.21679688 203.64941406 C49.48984842 213.35593023 57.49998778 222.23402995 65.9375 230.9375 C66.88278564 231.91565674 66.88278564 231.91565674 67.84716797 232.91357422 C75.50105221 240.79980506 83.28523025 248.14258415 91.9375 254.9375 C93.18734757 255.96185961 94.43456118 256.98943806 95.6796875 258.01953125 C102.86054349 263.94772004 110.1075612 269.66153056 117.77270508 274.95483398 C119.1758609 275.92792738 120.55914794 276.92958005 121.9375 277.9375 C121.9375 278.2675 121.9375 278.5975 121.9375 278.9375 C102.86603286 279.33557055 83.79541433 279.63485406 64.72064686 279.81830692 C55.86255916 279.9057745 47.00706001 280.02488509 38.15063477 280.2199707 C30.4262476 280.39003835 22.70373516 280.49922943 14.9775278 280.53700441 C10.88965132 280.5590737 6.80713475 280.61045271 2.72098732 280.73491096 C-24.11292993 281.52124444 -24.11292993 281.52124444 -30.89859009 275.21994019 C-33.8752372 271.73575382 -36.10235546 268.04053779 -38.08260536 263.91837883 C-39.36962902 261.31663184 -41.03275949 259.09713098 -42.8125 256.8125 C-50.60946297 245.41545783 -57.16742326 233.40723818 -63.0625 220.9375 C-63.86494141 219.26300781 -63.86494141 219.26300781 -64.68359375 217.5546875 C-75.09439341 194.67796929 -79.28959101 169.6055731 -79.3125 144.625 C-79.31350708 143.86561127 -79.31451416 143.10622253 -79.31555176 142.32382202 C-79.30504573 130.6122278 -78.71326437 119.38605993 -76.0625 107.9375 C-75.7840625 106.6484375 -75.505625 105.359375 -75.21875 104.03125 C-70.35512157 83.73817966 -60.39706289 62.83878519 -43.375 50.0625 C-36.55392589 44.3997215 -32.95400034 34.76727096 -29.09765625 26.96875 C-28.31491333 25.38682861 -28.31491333 25.38682861 -27.51635742 23.77294922 C-26.48468755 21.67515135 -25.46229091 19.57276062 -24.45043945 17.46533203 C-13.62290326 -4.72631338 -13.62290326 -4.72631338 0 0 Z " fill="#F6B523" transform="translate(469.0625,198.0625)"/>
<path d="M0 0 C18.99271828 8.85836085 31.34433918 27.24542644 38.62109375 46.328125 C43.87895256 61.01867099 47.48172847 76.57064494 49.8984375 91.97265625 C50.06859375 90.89628906 50.23875 89.81992187 50.4140625 88.7109375 C56.19286196 53.35899966 56.19286196 53.35899966 69.15234375 43.20703125 C69.91417969 42.7171875 70.67601562 42.22734375 71.4609375 41.72265625 C72.22535156 41.2225 72.98976563 40.72234375 73.77734375 40.20703125 C77.88318289 37.81762947 81.21402566 37.58868807 85.8984375 37.97265625 C91.95041314 39.70179215 95.17531938 43.00631641 98.57421875 48.16796875 C102.30248502 56.06441472 103.42622063 63.546161 103.3359375 72.22265625 C103.32457764 73.78367065 103.32457764 73.78367065 103.31298828 75.3762207 C102.85599037 97.41052518 96.4332682 118.71998497 88.7734375 139.22265625 C81.84991195 157.86429773 76.43994388 176.84098457 84.8984375 195.97265625 C85.27613281 196.88660156 85.65382813 197.80054688 86.04296875 198.7421875 C90.30081176 208.14546013 96.61891781 216.18914514 102.80029297 224.3972168 C103.8984375 225.97265625 103.8984375 225.97265625 103.8984375 226.97265625 C90.0384375 226.97265625 76.1784375 226.97265625 61.8984375 226.97265625 C59.9184375 222.02265625 57.9384375 217.07265625 55.8984375 211.97265625 C53.6394545 208.12842202 51.46134391 204.57424655 48.8984375 200.97265625 C48.1971875 199.92078125 47.4959375 198.86890625 46.7734375 197.78515625 C39.05095225 189.08995586 27.20970289 185.39117436 16.3984375 182.53515625 C13.74760363 181.79301496 11.10338528 181.02923729 8.4609375 180.2578125 C7.81193481 180.06873322 7.16293213 179.87965393 6.4942627 179.68484497 C-17.48594185 172.58135659 -44.17047689 158.81247579 -56.5390625 136.09765625 C-59.45708652 129.81391137 -61.41137935 123.50370874 -59.4296875 116.6484375 C-56.85229604 110.93381134 -53.12899322 107.71790769 -47.4140625 105.22265625 C-35.50280655 101.18569427 -21.97100625 105.18049186 -11.1015625 110.53515625 C-3.21948865 114.56364364 3.87376881 119.61634638 10.8984375 124.97265625 C8.14490057 119.98945717 5.1304803 115.35988064 1.8359375 110.72265625 C-17.71399071 82.66326529 -32.9915724 52.01495026 -30.1015625 16.97265625 C-28.82408014 10.38635496 -26.14614923 6.2438786 -20.8828125 2.12890625 C-14.3122757 -2.13617904 -7.46430117 -2.47243225 0 0 Z " fill="#4F7B30" transform="translate(269.1015625,240.02734375)"/>
<path d="M0 0 C127.71 0 255.42 0 387 0 C385 13 385 13 383 20 C257.93 20 132.86 20 4 20 C0 3 0 3 0 0 Z " fill="#FEFDFC" transform="translate(319,547)"/>
<path d="M0 0 C4.79737793 4.56893137 6.81171401 9.34041375 7.13293457 15.96386719 C7.15652822 18.07474039 7.15839311 20.18592919 7.14257812 22.296875 C7.1495874 23.45562134 7.15659668 24.61436768 7.16381836 25.80822754 C7.18136261 29.62239851 7.16978734 33.43582203 7.15625 37.25 C7.15894592 39.90984004 7.16282358 42.56965774 7.16784668 45.22949219 C7.17510714 50.79760776 7.16557779 56.36551054 7.14648438 61.93359375 C7.12471844 68.35486785 7.13177097 74.7756338 7.15379 81.1968956 C7.17199001 86.72754108 7.17447999 92.25803432 7.16403532 97.7887001 C7.15782547 101.0842889 7.15848455 104.37958893 7.17018127 107.6751709 C7.1803666 111.35150249 7.16481589 115.02686535 7.14257812 118.703125 C7.15067505 119.78388306 7.15877197 120.86464111 7.16711426 121.97814941 C7.0931481 128.59574348 6.12766954 132.84678313 2.625 138.5 C-1.20774689 142.1004592 -5.01422142 142.87540177 -10.25 142.76953125 C-13.98935984 142.29523745 -16.5321092 140.92970208 -19.375 138.5 C-23.92930524 132.38358352 -23.95250144 125.97031331 -23.90844727 118.61132812 C-23.91706284 117.44282822 -23.92567841 116.27432831 -23.93455505 115.07041931 C-23.9571812 111.22380157 -23.95048214 107.37791427 -23.94140625 103.53125 C-23.9453185 101.52738796 -23.94924232 99.52352556 -23.95470566 97.51966715 C-23.97166495 91.22608196 -23.96817852 84.93273947 -23.95141602 78.63916016 C-23.93449021 72.16327882 -23.95034369 65.68807137 -23.9826389 59.21226358 C-24.00939163 53.63490289 -24.01659584 48.05775123 -24.00812382 42.48033285 C-24.00321197 39.15672111 -24.0074368 35.83360225 -24.02591133 32.51002502 C-24.04336307 28.80240986 -24.02880673 25.09622976 -24.00610352 21.38867188 C-24.01779572 20.29856308 -24.02948792 19.20845428 -24.04153442 18.08531189 C-23.956962 11.28455157 -22.80122947 6.76025701 -18.375 1.5 C-13.281022 -3.15735131 -5.99189878 -2.66306612 0 0 Z " fill="#FEFEFE" transform="translate(520.375,609.5)"/>
<path d="M0 0 C3.92971874 2.00058409 6.84762703 4.12572866 9 8 C11.35608522 15.86792645 12.1858725 24.0121324 13.2421875 32.1328125 C13.45354221 33.73108208 13.66531233 35.32929678 13.87747192 36.92745972 C14.43564169 41.14038208 14.98832693 45.35400591 15.53979492 49.56781006 C16.19525516 54.56814104 16.85735837 59.56759593 17.51848221 64.56718063 C18.05926947 68.65911332 18.59808908 72.75128542 19.13250732 76.84405518 C20.12595577 84.44363418 21.13798518 92.03927347 22.21191406 99.62792969 C22.40162133 100.9853887 22.59109029 102.34288104 22.78030396 103.70040894 C23.12515407 106.16175596 23.47719373 108.62211354 23.83859253 111.08108521 C26.87069905 132.88968341 26.87069905 132.88968341 23.3125 138.6875 C19.50814104 142.49185896 16.90764524 144.15977034 11.5 144.375 C6.44681116 144.19063822 3.77538039 142.49710161 -0.04199219 139.27807617 C-2.48308098 136.43795154 -2.86556472 134.48049238 -3.515625 130.80078125 C-3.63190247 130.15708084 -3.74817993 129.51338043 -3.86798096 128.85017395 C-4.26885917 126.57010109 -4.63772254 124.2865211 -5 122 C-5.13994385 121.12293396 -5.2798877 120.24586792 -5.42407227 119.34222412 C-6.58782601 111.96534684 -7.67266287 104.57740835 -8.75 97.1875 C-9.09757942 94.81891776 -9.44523692 92.45034698 -9.79296875 90.08178711 C-10.87073711 82.72245272 -11.93705531 75.36148843 -13 68 C-13.1745874 66.79226929 -13.3491748 65.58453857 -13.52905273 64.34020996 C-14.53935914 57.34413248 -15.54193895 50.34701227 -16.53381348 43.34829712 C-16.84282116 41.17033507 -17.15326987 38.99257695 -17.46520996 36.81503296 C-17.89842248 33.78491561 -18.32516394 30.75395787 -18.75 27.72265625 C-18.8777179 26.83649628 -19.00543579 25.9503363 -19.13702393 25.037323 C-21.0167661 11.45551694 -21.0167661 11.45551694 -17 5 C-12.21866686 -0.52841644 -6.98102856 -0.79379297 0 0 Z " fill="#FEFEFD" transform="translate(417,608)"/>
<path d="M0 0 C3.32079981 2.75151984 6.93102311 6.14095905 7.36233521 10.63363647 C7.4503986 18.79608704 6.2121011 26.74299759 4.9921875 34.7890625 C4.76126847 36.34883343 4.53100255 37.90870116 4.30134583 39.46865845 C3.69000342 43.60808368 3.06977393 47.74612389 2.44674301 51.88380432 C1.8050783 56.14833576 1.16801681 60.41355516 0.53051758 64.67871094 C0.27646084 66.37842056 0.0223868 68.0781276 -0.23170471 69.77783203 C-0.41918872 71.03200928 -0.41918872 71.03200928 -0.61046028 72.31152344 C-0.98710738 74.82809429 -1.36500232 77.34447556 -1.74302673 79.86083984 C-3.11884661 89.03683044 -4.43705725 98.21729204 -5.66796875 107.4140625 C-6.04187877 110.14347288 -6.41743866 112.87265024 -6.79364014 115.60174561 C-7.0120493 117.22370215 -7.22209223 118.84681045 -7.42315674 120.4710083 C-9.17960432 134.63454327 -9.17960432 134.63454327 -14.20385742 139.63964844 C-18.24691082 142.58741418 -21.55709458 143.30508708 -26.4921875 143.19921875 C-30.34539621 142.5570173 -33.14708793 140.61819692 -35.8125 137.8125 C-41.67952857 128.43498752 -36.91669316 111.86749076 -35.328125 101.4921875 C-35.06775738 99.74094884 -34.80831751 97.98957203 -34.54974365 96.23806763 C-33.86967952 91.64774659 -33.17771325 87.05930153 -32.48291016 82.47119141 C-31.6553704 76.99174405 -30.8419008 71.51019344 -30.02677155 66.0288887 C-29.36593673 61.58845352 -28.70137228 57.14865279 -28.02770996 52.71014404 C-26.84423087 44.89355759 -25.69390873 37.07916769 -24.70507812 29.23535156 C-24.53812439 27.9473465 -24.37117065 26.65934143 -24.19915771 25.33230591 C-23.90153582 23.00337058 -23.61905318 20.6724197 -23.35601807 18.33932495 C-22.37777419 10.77499033 -20.36923916 4.97404592 -14.5625 -0.1875 C-9.61609649 -1.98619219 -4.86329709 -2.0533921 0 0 Z " fill="#FEFEFD" transform="translate(619.8125,609.1875)"/>
<path d="M0 0 C3.72034518 2.12675783 6.66853448 3.84419128 8.5625 7.8125 C8.13841674 14.86201524 6.50460699 21.38450258 4.6875 28.1875 C0.70425371 43.63964621 -1.746447 58.87062223 -2.4375 74.8125 C-3.39785156 74.42578125 -4.35820313 74.0390625 -5.34765625 73.640625 C-17.45548252 68.97164302 -29.62886643 66.7041635 -42.4375 64.8125 C-40.97750183 59.8550828 -39.48947531 54.91227063 -37.859375 50.0078125 C-33.94072176 38.15841245 -30.67667404 26.26990274 -27.92285156 14.09228516 C-27.65569336 12.95710449 -27.38853516 11.82192383 -27.11328125 10.65234375 C-26.88552002 9.64550537 -26.65775879 8.63866699 -26.4230957 7.60131836 C-24.96373662 3.47195032 -22.90353596 0.58919216 -19.01171875 -1.47265625 C-12.37701127 -3.31507123 -6.23648698 -2.93373204 0 0 Z " fill="#517D30" transform="translate(725.4375,191.1875)"/>
<path d="M0 0 C1.65 0 3.3 0 5 0 C6.55525217 3.11050434 6.17877451 6.42335119 6.2109375 9.83984375 C6.23649825 11.46762354 6.26289736 13.09539033 6.29003906 14.72314453 C6.30329224 15.57539612 6.31654541 16.42764771 6.3302002 17.3057251 C6.57025903 31.40803701 6.87507484 45.19374366 10 59 C10.2472583 60.19085205 10.2472583 60.19085205 10.49951172 61.40576172 C13.13754917 74.03954517 17.1777207 85.4878261 23 97 C23.34015137 97.67482422 23.68030273 98.34964844 24.03076172 99.04492188 C40.25545765 130.64646739 65.56299097 157.90088711 96.9453125 174.765625 C99 176 99 176 100 178 C97.24940619 178.08107646 94.50120979 178.14052813 91.75 178.1875 C90.97269531 178.21263672 90.19539062 178.23777344 89.39453125 178.26367188 C84.87052957 178.3216719 82.39713851 178.23537001 79 175 C77.91738353 174.20646185 76.82369293 173.42793189 75.72265625 172.66015625 C75.12646484 172.23669922 74.53027344 171.81324219 73.91601562 171.37695312 C72.68478062 170.50380122 71.4530132 169.63139958 70.22070312 168.75976562 C62.94588918 163.58813413 62.94588918 163.58813413 60 161 C60 160.34 60 159.68 60 159 C59.46503906 158.78859375 58.93007813 158.5771875 58.37890625 158.359375 C55.08701056 156.47829175 52.5844018 153.92396303 49.9375 151.25 C49.36604248 150.67362793 48.79458496 150.09725586 48.20581055 149.50341797 C42.26359236 143.4005102 37.00830228 136.8816801 32 130 C31.58685547 129.43651855 31.17371094 128.87303711 30.74804688 128.29248047 C19.34103976 112.53327531 9.75704168 94.61458504 4 76 C3.77231934 75.26894043 3.54463867 74.53788086 3.31005859 73.78466797 C-1.72522874 57.20625485 -3.14142078 41.15427393 -3.25 23.875 C-3.25942627 22.73675781 -3.26885254 21.59851563 -3.27856445 20.42578125 C-3.25141013 13.48247329 -3.17446268 6.34892536 0 0 Z " fill="#E1990D" transform="translate(431,299)"/>
<path d="M0 0 C3.64636027 2.40504613 6.81792194 5.06663936 8.9375 8.9375 C9.29153442 13.41998864 8.69439454 16.10233232 6.48828125 19.9921875 C5.7135144 21.39718506 5.7135144 21.39718506 4.9230957 22.83056641 C4.37097412 23.81460449 3.81885254 24.79864258 3.25 25.8125 C-4.01083135 39.26068405 -8.769986 51.40766562 -9.0625 66.9375 C-9.50078125 66.58558594 -9.9390625 66.23367188 -10.390625 65.87109375 C-22.89895336 55.93898847 -22.89895336 55.93898847 -37.8359375 51.9609375 C-38.69445312 52.07695312 -39.55296875 52.19296875 -40.4375 52.3125 C-41.31148438 52.42335937 -42.18546875 52.53421875 -43.0859375 52.6484375 C-43.73820312 52.74382812 -44.39046875 52.83921875 -45.0625 52.9375 C-45.0625 52.2775 -45.0625 51.6175 -45.0625 50.9375 C-44.31097656 50.35484375 -43.55945313 49.7721875 -42.78515625 49.171875 C-39.77852932 46.70445663 -38.38460232 44.57725451 -36.5 41.1875 C-36.17338379 40.60403809 -35.84676758 40.02057617 -35.51025391 39.41943359 C-31.56119639 32.24113307 -27.9957354 24.85001154 -24.45092773 17.46582031 C-13.62152957 -4.72583679 -13.62152957 -4.72583679 0 0 Z " fill="#507D30" transform="translate(469.0625,198.0625)"/>
<path d="M0 0 C0.67385742 0.19215088 1.34771484 0.38430176 2.04199219 0.58227539 C6.66793972 2.05201359 9.56073826 3.93273073 12.5625 7.75 C12.5625 9.07 12.5625 10.39 12.5625 11.75 C5.8617367 13.31319371 0.13769717 11.96247497 -6.5 10.5 C-7.56283203 10.28214844 -8.62566406 10.06429688 -9.72070312 9.83984375 C-15.04566671 8.70234372 -19.7323366 7.52253996 -24.4375 4.75 C-24.4375 2.77 -24.4375 0.79 -24.4375 -1.25 C-17.13845427 -5.63283821 -7.64368581 -2.27114113 0 0 Z " fill="#784415" transform="translate(647.4375,340.25)"/>
<path d="M0 0 C9.60159733 0.37653323 24.15956542 3.2529812 32 9 C33.1875 12.0625 33.1875 12.0625 33 15 C32.34 15.99 31.68 16.98 31 18 C24.24808708 17.4390508 18.15558154 16.11145201 11.6875 14.125 C10.36782227 13.74021484 10.36782227 13.74021484 9.02148438 13.34765625 C7.74821289 12.96287109 7.74821289 12.96287109 6.44921875 12.5703125 C5.68955811 12.34102051 4.92989746 12.11172852 4.1472168 11.87548828 C1.70687757 10.8804847 -0.05301528 9.77731463 -2 8 C-2.375 4.9375 -2.375 4.9375 -2 2 C-1.34 1.34 -0.68 0.68 0 0 Z " fill="#794416" transform="translate(624,433)"/>
<path d="M0 0 C11.35790815 0.19926155 23.97494243 5.18516061 33 12 C34 15 34 15 33.125 17.25 C31 19 31 19 29.16870117 19.08837891 C23.00380972 18.42119775 17.83809787 16.62542317 12.1875 14.125 C11.35541016 13.77308594 10.52332031 13.42117188 9.66601562 13.05859375 C2.14673597 9.81450999 2.14673597 9.81450999 -1 7 C-1.3125 3.875 -1.3125 3.875 -1 1 C-0.67 0.67 -0.34 0.34 0 0 Z " fill="#774315" transform="translate(692,306)"/>
<path d="M0 0 C5.08945786 0.46948875 9.04022378 2.16383739 13.66796875 4.2421875 C14.92963867 4.78939453 14.92963867 4.78939453 16.21679688 5.34765625 C18.48094729 6.33519212 20.7369239 7.33372398 22.98046875 8.3671875 C23.70339111 8.67285645 24.42631348 8.97852539 25.17114258 9.29345703 C27.97388877 10.95672484 28.18966235 13.33576298 28.98046875 16.3671875 C27.30859375 17.921875 27.30859375 17.921875 24.98046875 19.3671875 C16.31648158 18.95330276 1.24171457 13.62843332 -5.01953125 7.3671875 C-5.26953125 4.8671875 -5.26953125 4.8671875 -5.01953125 2.3671875 C-3.01953125 0.3671875 -3.01953125 0.3671875 0 0 Z " fill="#784415" transform="translate(683.01953125,398.6328125)"/>
<path d="M0 0 C54.78 0 109.56 0 166 0 C162.42828982 2.38114012 160.9197631 2.23864228 156.68359375 2.21118164 C155.37793457 2.20780289 154.07227539 2.20442413 152.72705078 2.20094299 C151.29720005 2.18739676 149.8673498 2.17379988 148.4375 2.16015625 C146.96598708 2.1538803 145.49446939 2.14864205 144.02294922 2.14439392 C140.14072977 2.1310791 136.25866706 2.10666539 132.37652588 2.07904053 C126.19207313 2.03599698 120.00758545 2.00596826 113.82302856 1.9829998 C111.67679566 1.97289999 109.53070221 1.95582598 107.38452148 1.93800354 C100.62447546 1.89676338 93.96480725 2.03580769 87.23954773 2.77267456 C84.09259196 3.09210651 80.97314386 3.09648542 77.8125 3.0625 C76.70519531 3.05347656 75.59789062 3.04445313 74.45703125 3.03515625 C73.64621094 3.02355469 72.83539062 3.01195312 72 3 C72 2.34 72 1.68 72 1 C69.39547729 1.14086602 66.79149803 1.28748464 64.1875 1.4375 C63.08051758 1.49647461 63.08051758 1.49647461 61.95117188 1.55664062 C58.76928658 1.74381035 56.03837622 1.98720793 53 3 C45.7983925 3.22862246 45.7983925 3.22862246 43.25390625 2.5 C39.8177185 1.73772611 36.37634 1.85620927 32.875 1.875 C32.14667969 1.87113281 31.41835938 1.86726563 30.66796875 1.86328125 C26.70481514 1.79225278 26.70481514 1.79225278 23 3 C20.66117862 2.70764733 18.32716 2.37400786 16 2 C15.34 2 14.68 2 14 2 C13.67 2.99 13.34 3.98 13 5 C13 4.01 13 3.02 13 2 C8.71 1.67 4.42 1.34 0 1 C0 0.67 0 0.34 0 0 Z " fill="#D66015" transform="translate(592,477)"/>
<path d="M0 0 C0.495 0.99 0.495 0.99 1 2 C-0.45333561 5.35913149 -1.15295284 6.82250626 -4 9 C-9.34210331 10.06269964 -14.67851373 9.86272927 -20.09765625 9.75390625 C-21.69517389 9.74591994 -23.29270786 9.7407483 -24.89024353 9.73826599 C-28.23379876 9.72603865 -31.57603811 9.69111366 -34.91918945 9.63793945 C-39.20215278 9.57002702 -43.48418669 9.54111037 -47.76763248 9.52694798 C-51.85693006 9.51181042 -55.94599784 9.47739018 -60.03515625 9.44140625 C-61.20367473 9.43349154 -61.20367473 9.43349154 -62.39579964 9.42541695 C-64.60278312 9.40693652 -66.8091214 9.37477396 -69.01586914 9.33813477 C-70.27097794 9.32146255 -71.52608673 9.30479034 -72.81922913 9.28761292 C-75.79413533 9.01861478 -77.49883069 8.56592507 -80 7 C-75.77136672 6.81789416 -71.54216653 6.65620853 -67.3125 6.5 C-66.64971039 6.47432953 -65.98692078 6.44865906 -65.30404663 6.42221069 C-55.88126095 6.06686289 -46.49102366 5.99321878 -37.0625 6.14453125 C-35.0152209 6.17079185 -32.96793897 6.1968336 -30.9206543 6.22265625 C-27.8691934 6.26208136 -24.81979618 6.31230099 -21.76919556 6.39550781 C-18.8941045 6.473584 -16.02041752 6.51532734 -13.14453125 6.55078125 C-11.84642517 6.60199883 -11.84642517 6.60199883 -10.52209473 6.6542511 C-8.19257646 6.66483104 -6.24407591 6.62813561 -4 6 C-1.36145855 3.14428271 -1.36145855 3.14428271 0 0 Z " fill="#8F5925" transform="translate(720,457)"/>
<path d="M0 0 C0.66 0.33 1.32 0.66 2 1 C1.5875 1.53625 1.175 2.0725 0.75 2.625 C-0.48416183 4.29993391 -1.66756263 6.01285365 -2.8125 7.75 C-4.53759572 10.31299935 -6.26783279 12.86068901 -8.0625 15.375 C-8.54847656 16.06335938 -9.03445313 16.75171875 -9.53515625 17.4609375 C-10.01855469 17.96882813 -10.50195312 18.47671875 -11 19 C-11.99 19 -12.98 19 -14 19 C-14 19.66 -14 20.32 -14 21 C-14.66 20.67 -15.32 20.34 -16 20 C-10.9157711 13.08268177 -5.80019875 6.3410533 0 0 Z " fill="#7E4E21" transform="translate(629,275)"/>
<path d="M0 0 C3.60400627 -0.08858959 7.20772545 -0.14091522 10.8125 -0.1875 C12.31973633 -0.22520508 12.31973633 -0.22520508 13.85742188 -0.26367188 C21.02876725 -0.33284884 27.19047709 0.76322177 34 3 C30.61678536 4.12773821 29.40406813 3.73211512 26 3 C24.23447202 2.92252803 22.46641544 2.89200927 20.69921875 2.90234375 C19.72275391 2.90556641 18.74628906 2.90878906 17.74023438 2.91210938 C16.22913086 2.92467773 16.22913086 2.92467773 14.6875 2.9375 C13.66076172 2.94201172 12.63402344 2.94652344 11.57617188 2.95117188 C9.05072118 2.96291816 6.52539095 2.97934435 4 3 C4 2.34 4 1.68 4 1 C2.68 0.67 1.36 0.34 0 0 Z " fill="#925526" transform="translate(668,256)"/>
<path d="M0 0 C0.99 0 1.98 0 3 0 C4.21165996 3.71070863 5.0102071 6.44881683 4.9375 10.375 C5.00696349 14.40388228 5.98131952 17.27251007 7.44140625 20.984375 C8 23 8 23 7 26 C3.02653372 17.60933008 1.48736346 9.08193145 0 0 Z " fill="#F4701B" transform="translate(305,743)"/>
<path d="M0 0 C10.56 0 21.12 0 32 0 C32 0.66 32 1.32 32 2 C30.88625 1.979375 29.7725 1.95875 28.625 1.9375 C25.16784079 1.73619282 25.16784079 1.73619282 23 3 C20.66117862 2.70764733 18.32716 2.37400786 16 2 C15.34 2 14.68 2 14 2 C13.67 2.99 13.34 3.98 13 5 C13 4.01 13 3.02 13 2 C8.71 1.67 4.42 1.34 0 1 C0 0.67 0 0.34 0 0 Z " fill="#D86316" transform="translate(592,477)"/>
<path d="M0 0 C5.06623768 4.23816537 9.80038069 8.67408963 14.4375 13.375 C15.07365234 14.01566406 15.70980469 14.65632813 16.36523438 15.31640625 C17.91250332 16.87530879 19.45736492 18.43651416 21 20 C17.11781847 20 16.36815274 18.84274486 13.5625 16.25 C12.80066406 15.55390625 12.03882813 14.8578125 11.25390625 14.140625 C9.74645966 12.70894262 8.27445697 11.23903262 6.83984375 9.734375 C5.17885723 7.77135241 5.17885723 7.77135241 3 8 C0 2.25 0 2.25 0 0 Z " fill="#F5AA17" transform="translate(525,420)"/>
<path d="M0 0 C0.33 0 0.66 0 1 0 C0.48400816 7.8822202 -1.0921453 15.34458305 -3 23 C-3.66 22.67 -4.32 22.34 -5 22 C-5.34060098 16.43685061 -4.29355673 13.02818207 -2 8 C-1.22971541 5.34835366 -0.61443119 2.69404446 0 0 Z " fill="#F47019" transform="translate(754,563)"/>
<path d="M0 0 C0.33 0 0.66 0 1 0 C1.08089542 2.77141717 1.14044062 5.54047819 1.1875 8.3125 C1.22520508 9.49102539 1.22520508 9.49102539 1.26367188 10.69335938 C1.27333984 11.45068359 1.28300781 12.20800781 1.29296875 12.98828125 C1.3086792 13.68477783 1.32438965 14.38127441 1.34057617 15.09887695 C0.90238443 17.54489783 -0.13437358 18.42702086 -2 20 C-2.66 19.67 -3.32 19.34 -4 19 C-3.71125 18.0925 -3.4225 17.185 -3.125 16.25 C-1.59023698 10.9331424 -0.84283028 5.46046424 0 0 Z " fill="#F46F18" transform="translate(612,726)"/>
<path d="M0 0 C0.66 0.33 1.32 0.66 2 1 C0.37744772 2.48185125 -1.24811888 3.96040256 -2.875 5.4375 C-3.77992188 6.26121094 -4.68484375 7.08492188 -5.6171875 7.93359375 C-8 10 -8 10 -10 11 C-10.66 10.34 -11.32 9.68 -12 9 C-10.75482035 7.86966702 -9.50363348 6.74594964 -8.25 5.625 C-7.55390625 4.99851562 -6.8578125 4.37203125 -6.140625 3.7265625 C-4.13222793 2.106651 -2.4072994 0.92043801 0 0 Z " fill="#7A4A1D" transform="translate(643,265)"/>
<path d="M0 0 C-0.11433363 2.25056722 -0.24186436 4.50046674 -0.375 6.75 C-0.47941406 8.62945313 -0.47941406 8.62945313 -0.5859375 10.546875 C-1 14 -1 14 -3 18 C-3 12.39 -3 6.78 -3 1 C-1 0 -1 0 0 0 Z " fill="#F47018" transform="translate(592,661)"/>
<path d="M0 0 C0.33 0 0.66 0 1 0 C1.78118882 9.47041213 2.16656743 18.52388303 1 28 C0.67 28 0.34 28 0 28 C-0.85481185 18.491862 -1.04377631 9.52245158 0 0 Z " fill="#F38227" transform="translate(529,635)"/>
<path d="M0 0 C0.33 0 0.66 0 1 0 C1.33 8.58 1.66 17.16 2 26 C-1.375 21.5 -1.375 21.5 -1.07421875 16.796875 C-1.01943359 15.8171875 -0.96464844 14.8375 -0.90820312 13.828125 C-0.79895508 12.30445313 -0.79895508 12.30445313 -0.6875 10.75 C-0.62626953 9.71875 -0.56503906 8.6875 -0.50195312 7.625 C-0.3489076 5.08208972 -0.18109518 2.54104136 0 0 Z " fill="#95602C" transform="translate(584,410)"/>
<path d="M0 0 C1.1673418 3.5020254 0.79056598 4.29616038 -0.43359375 7.66796875 C-0.75263672 8.56064453 -1.07167969 9.45332031 -1.40039062 10.37304688 C-1.74263672 11.30181641 -2.08488281 12.23058594 -2.4375 13.1875 C-2.77587891 14.12787109 -3.11425781 15.06824219 -3.46289062 16.03710938 C-4.30048809 18.36114742 -5.14645283 20.68178235 -6 23 C-6.33 23 -6.66 23 -7 23 C-7.125 16.25 -7.125 16.25 -6 14 C-5.34 14 -4.68 14 -4 14 C-3.81824219 13.11248047 -3.81824219 13.11248047 -3.6328125 12.20703125 C-2.73255357 7.96196415 -1.79543379 3.97560339 0 0 Z " fill="#3D691E" transform="translate(360,367)"/>
<path d="M0 0 C4.29797267 3.40873695 5.91459205 7.74540826 7 13 C6.67 13.66 6.34 14.32 6 15 C4.98634107 13.44632634 3.98957744 11.88162164 3 10.3125 C2.443125 9.44238281 1.88625 8.57226562 1.3125 7.67578125 C-0.08325608 4.83026663 -0.26993648 3.1211406 0 0 Z " fill="#497529" transform="translate(255,320)"/>
<path d="M0 0 C5.02058369 2.30675467 6.05709459 4.9661087 8 10 C9.56328365 12.33878876 9.56328365 12.33878876 11 14 C10.67 14.66 10.34 15.32 10 16 C8.70161824 14.2758698 7.41156253 12.54546768 6.125 10.8125 C5.04605469 9.36810547 5.04605469 9.36810547 3.9453125 7.89453125 C2.19403401 5.28871325 1.02540206 2.95207856 0 0 Z " fill="#3F6B20" transform="translate(269,346)"/>
<path d="M0 0 C0.66 0.33 1.32 0.66 2 1 C1.01 1.33 0.02 1.66 -1 2 C-1.268125 2.78375 -1.53625 3.5675 -1.8125 4.375 C-3.42040587 7.92931823 -5.48608262 8.54859934 -9 10 C-7.64717831 5.57258356 -5.76701112 3.63690779 -2 1 C-1.34 0.67 -0.68 0.34 0 0 Z " fill="#436F22" transform="translate(220,346)"/>
<path d="M0 0 C0.99 0.33 1.98 0.66 3 1 C3.05447047 2.41623216 3.09300508 3.83308191 3.125 5.25 C3.14820313 6.03890625 3.17140625 6.8278125 3.1953125 7.640625 C2.9828378 10.20731941 2.28654105 11.7916067 1 14 C0.04738513 9.23692563 -0.08333357 4.8333472 0 0 Z " fill="#F47218" transform="translate(433,661)"/>
<path d="M0 0 C0.66 0 1.32 0 2 0 C2.22197585 2.10277123 2.42713637 4.20732302 2.625 6.3125 C2.74101562 7.48425781 2.85703125 8.65601563 2.9765625 9.86328125 C3 13 3 13 1 16 C-0.06723961 12.53777385 -0.10173486 9.35960734 -0.0625 5.75 C-0.04896484 4.13351562 -0.04896484 4.13351562 -0.03515625 2.484375 C-0.02355469 1.66453125 -0.01195312 0.8446875 0 0 Z " fill="#F47018" transform="translate(400,656)"/>
<path d="M0 0 C2.125 0.9375 2.125 0.9375 4 2 C0.71195019 4.91227269 -1.59885603 6.49701212 -6 7 C-5.525625 6.566875 -5.05125 6.13375 -4.5625 5.6875 C-2.76313043 3.97690387 -2.76313043 3.97690387 -2 1 C-1.34 0.67 -0.68 0.34 0 0 Z " fill="#F4842B" transform="translate(241,479)"/>
<path d="M0 0 C0.66 0.33 1.32 0.66 2 1 C-1.34596881 5.56268474 -3.51587765 7.33091929 -9 9 C-9 8.34 -9 7.68 -9 7 C-7.28515625 5.52734375 -7.28515625 5.52734375 -5.0625 3.9375 C-2.41985962 2.10094469 -2.41985962 2.10094469 0 0 Z " fill="#F4852C" transform="translate(694,790)"/>
<path d="M0 0 C3.14958831 3.42346555 3.56179109 6.44262737 4 11 C3.67 10.34 3.34 9.68 3 9 C2.34 9 1.68 9 1 9 C0.67 6.03 0.34 3.06 0 0 Z " fill="#74471C" transform="translate(756,301)"/>
<path d="M0 0 C0.33 1.32 0.66 2.64 1 4 C0.01 5.485 0.01 5.485 -1 7 C-1.99 7 -2.98 7 -4 7 C-4 7.66 -4 8.32 -4 9 C-4.66 8.67 -5.32 8.34 -6 8 C-4.02 5.36 -2.04 2.72 0 0 Z " fill="#734419" transform="translate(619,287)"/>
<path d="M0 0 C0.33 0.99 0.66 1.98 1 3 C1.99 3.66 2.98 4.32 4 5 C0.7 5.66 -2.6 6.32 -6 7 C-6 6.34 -6 5.68 -6 5 C-4.04072937 3.2856382 -2.04119788 1.61594832 0 0 Z " fill="#225D2A" transform="translate(430,244)"/>
<path d="M0 0 C0.66 0 1.32 0 2 0 C0.66666667 3.33333333 -0.66666667 6.66666667 -2 10 C-2.99 10 -3.98 10 -5 10 C-3.66749209 6.4124787 -2.169283 3.1635377 0 0 Z " fill="#F4832B" transform="translate(703,778)"/>
<path d="M0 0 C1.485 0.99 1.485 0.99 3 2 C3 2.66 3 3.32 3 4 C2.34 4 1.68 4 1 4 C0.67 5.98 0.34 7.96 0 10 C-0.33 10 -0.66 10 -1 10 C-1.125 2.25 -1.125 2.25 0 0 Z " fill="#F28229" transform="translate(729,678)"/>
<path d="M0 0 C1.5625 1.4375 1.5625 1.4375 3 4 C2.96846324 7.05380927 2.53266629 9.99653222 2 13 C1.67 13 1.34 13 1 13 C-0.10228696 8.59085217 -0.07654536 4.51617599 0 0 Z " fill="#F6AC17" transform="translate(391,359)"/>
<path d="M0 0 C1.11841676 3.35525029 0.91538821 3.97089854 -0.3125 7.125 C-0.57675781 7.82882812 -0.84101563 8.53265625 -1.11328125 9.2578125 C-2 11 -2 11 -4 12 C-3.33501617 7.61110675 -1.81242323 4.0188515 0 0 Z " fill="#F7AC17" transform="translate(402,279)"/>
<path d="M0 0 C0.33 0 0.66 0 1 0 C0.67 2.97 0.34 5.94 0 9 C-0.99 8.34 -1.98 7.68 -3 7 C-2.67 5.68 -2.34 4.36 -2 3 C-1.34 3 -0.68 3 0 3 C0 2.01 0 1.02 0 0 Z " fill="#F26E16" transform="translate(747,597)"/>
<path d="M0 0 C1.875 0.25 1.875 0.25 4 1 C5.25 3.0625 5.25 3.0625 6 5 C3 5 3 5 1.3125 3.625 C0 2 0 2 0 0 Z " fill="#F57E2D" transform="translate(326,789)"/>
<path d="M0 0 C0.33 0 0.66 0 1 0 C1.33 2.97 1.66 5.94 2 9 C1.34 9 0.68 9 0 9 C-0.33 9.99 -0.66 10.98 -1 12 C-0.67 8.04 -0.34 4.08 0 0 Z " fill="#F3832C" transform="translate(437,681)"/>
<path d="M0 0 C1.485 0.99 1.485 0.99 3 2 C3.1875 4.625 3.1875 4.625 3 7 C2.01 7 1.02 7 0 7 C0 4.69 0 2.38 0 0 Z " fill="#8E5F2F" transform="translate(761,323)"/>
</svg>
